# xmcd CD database file
#
# Track frame offsets:
#	187
#	14325
#	30962
#	42637
#	61162
#	79612
#	91312
#	107887
#	126262
#	143512
#
# Disc length: 2118 seconds
#
# Revision: 2
# Processed by: cddbd v1.5.1PL2 Copyright (c) Steve Scherf et al.
# Submitted via: CDex 1.51
#
DISCID=7808440a
DTITLE=Robert Earl Keen - No Kinda Dancer
DYEAR=1984
DGENRE=Country
TTITLE0=No Kinda Dancer
TTITLE1=The Front Porch Song
TTITLE2=Between Hello and Goodbye
TTITLE3=Swervin' In My Lane
TTITLE4=Christabel
TTITLE5=Willie
TTITLE6=Young Lovers Waltz
TTITLE7=Death Of Tail Fitzsimmons
TTITLE8=Rolling By
TTITLE9=The Armadillo Jackal
EXTD=YEAR: 1984
EXTT0=
EXTT1=
EXTT2=
EXTT3=
EXTT4=
EXTT5=
EXTT6=
EXTT7=
EXTT8=
EXTT9=
PLAYORDER=
